HIERARCHY
ROOT Hips
{
	OFFSET 0.00000 0.00000 0.00000
	CHANNELS 6 Xposition Yposition Zposition Zrotation Yrotation Xrotation 
	JOINT LHipJoint
	{
		OFFSET 0 0 0
		CHANNELS 3 Zrotation Yrotation Xrotation
		JOINT LeftUpLeg
		{
			OFFSET 1.57338 -1.94743 0.52196
			CHANNELS 3 Zrotation Yrotation Xrotation
			JOINT LeftLeg
			{
				OFFSET 2.60333 -7.15259 0.00000
				CHANNELS 3 Zrotation Yrotation Xrotation
				JOINT LeftFoot
				{
					OFFSET 2.77855 -7.63400 0.00000
					CHANNELS 3 Zrotation Yrotation Xrotation
					JOINT LeftToeBase
					{
						OFFSET 0.19847 -0.54529 2.28466
						CHANNELS 3 Zrotation Yrotation Xrotation
						End Site
						{
							OFFSET 0.00000 -0.00000 1.17993
						}
					}
				}
			}
		}
	}
	JOINT RHipJoint
	{
		OFFSET 0 0 0
		CHANNELS 3 Zrotation Yrotation Xrotation
		JOINT RightUpLeg
		{
			OFFSET -1.61527 -1.94743 0.52196
			CHANNELS 3 Zrotation Yrotation Xrotation
			JOINT RightLeg
			{
				OFFSET -2.53829 -6.97390 0.00000
				CHANNELS 3 Zrotation Yrotation Xrotation
				JOINT RightFoot
				{
					OFFSET -2.80762 -7.71387 0.00000
					CHANNELS 3 Zrotation Yrotation Xrotation
					JOINT RightToeBase
					{
						OFFSET -0.30536 -0.83898 2.28801
						CHANNELS 3 Zrotation Yrotation Xrotation
						End Site
						{
							OFFSET -0.00000 -0.00000 1.21323
						}
					}
				}
			}
		}
	}
	JOINT LowerBack
	{
		OFFSET 0 0 0
		CHANNELS 3 Zrotation Yrotation Xrotation
		JOINT Spine
		{
			OFFSET -0.04381 1.99497 -0.19778
			CHANNELS 3 Zrotation Yrotation Xrotation
			JOINT Spine1
			{
				OFFSET -0.01959 2.01295 -0.04372
				CHANNELS 3 Zrotation Yrotation Xrotation
				JOINT Neck
				{
					OFFSET 0 0 0
					CHANNELS 3 Zrotation Yrotation Xrotation
					JOINT Neck1
					{
						OFFSET -0.05459 1.76913 0.09708
						CHANNELS 3 Zrotation Yrotation Xrotation
						JOINT Head
						{
							OFFSET 0.09461 1.77368 -0.11172
							CHANNELS 3 Zrotation Yrotation Xrotation
							End Site
							{
								OFFSET 0.03812 1.78157 -0.04834
							}
						}
					}
				}
				JOINT LeftShoulder
				{
					OFFSET 0 0 0
					CHANNELS 3 Zrotation Yrotation Xrotation
					JOINT LeftArm
					{
						OFFSET 3.50922 1.24034 -0.28866
						CHANNELS 3 Zrotation Yrotation Xrotation
						JOINT LeftForeArm
						{
							OFFSET 5.40188 -0.00000 0.00000
							CHANNELS 3 Zrotation Yrotation Xrotation
							JOINT LeftHand
							{
								OFFSET 3.68559 -0.00000 0.00000
								CHANNELS 3 Zrotation Yrotation Xrotation
								JOINT LeftFingerBase
								{
									OFFSET 0 0 0
									CHANNELS 3 Zrotation Yrotation Xrotation
									JOINT LeftHandIndex1
									{
										OFFSET 0.61753 -0.00000 0.00000
										CHANNELS 3 Zrotation Yrotation Xrotation
										End Site
										{
											OFFSET 0.49787 -0.00000 0.00000
										}
									}
								}
								JOINT LThumb
								{
									OFFSET 0 0 0
									CHANNELS 3 Zrotation Yrotation Xrotation
									End Site
									{
										OFFSET 0.50547 -0.00000 0.50547
									}
								}
							}
						}
					}
				}
				JOINT RightShoulder
				{
					OFFSET 0 0 0
					CHANNELS 3 Zrotation Yrotation Xrotation
					JOINT RightArm
					{
						OFFSET -2.95373 1.39649 -0.27346
						CHANNELS 3 Zrotation Yrotation Xrotation
						JOINT RightForeArm
						{
							OFFSET -6.10670 -0.00000 -0.00000
							CHANNELS 3 Zrotation Yrotation Xrotation
							JOINT RightHand
							{
								OFFSET -3.63052 -0.00000 0.00000
								CHANNELS 3 Zrotation Yrotation Xrotation
								JOINT RightFingerBase
								{
									OFFSET 0 0 0
									CHANNELS 3 Zrotation Yrotation Xrotation
									JOINT RightHandIndex1
									{
										OFFSET -0.58385 -0.00000 0.00000
										CHANNELS 3 Zrotation Yrotation Xrotation
										End Site
										{
											OFFSET -0.47071 -0.00000 0.00000
										}
									}
								}
								JOINT RThumb
								{
									OFFSET 0 0 0
									CHANNELS 3 Zrotation Yrotation Xrotation
									End Site
									{
										OFFSET -0.47790 -0.00000 0.47790
									}
								}
							}
						}
					}
				}
			}
		}
	}
}
MOTION
Frames: 15
Frame Time: .0083333
-9.1694 18.3962 0.3767 0 0 0 0 0 0 -21 0 0 0 0 0 0 0 0 0 0 0 0 0 0 21 0 0 0 0 0 0 0 0 0 0 0 0 0 0 0 0 0 0 0 0 0 0 -16 0 0 21 0 0 11 0 0 0 -8 0 0 0 0 0 0 0 0 0 0 0 0 0 0 0 0 0 0 0 0 8 0 0 0 0 0 0 0 0 0 0 0 0 0 0 0 0 0
-9.1694 18.3962 0.3767 -3.5812 18.6586 -4.2207 0.0000 0.0000 0.0000 -4.3160 -0.9815 -18.5471 2.6334 10.0765 29.2248 -0.3732 16.2493 -18.9476 0.3486 3.7934 10.4962 0.0000 0.0000 0.0000 27.5741 3.6895 4.0287 -1.6502 -8.0959 23.0059 -0.6483 -22.6759 -35.7901 -0.0032 -0.3673 1.0093 2.2463 4.1283 7.6295 -3.0716 5.6100 2.0506 -4.9152 2.8180 -1.6113 -3.4810 10.3393 -7.4267 8.0773 13.6511 30.4860 4.8150 6.9483 10.0416 -0.0000 0.0000 0.0000 -82.7312 6.6012 -14.8583 8.0865 -13.6930 -0.9725 -0.0000 -0.0000 17.9797 30.5048 22.6454 12.7808 -7.1250 0.0000 -0.0000 1.6654 55.8089 0.4418 -0.0000 0.0000 0.0000 81.1685 -2.7356 31.2439 -20.1650 30.8406 -5.6157 0.0000 0.0000 8.4857 -37.5040 4.0310 -3.0880 7.1250 -0.0000 -0.0000 -8.1334 -24.9013 -3.9910
-9.1010 18.3868 0.4049 -3.6374 19.2162 -4.1829 0.0000 0.0000 0.0000 -4.5250 -0.9241 -18.6403 2.6572 10.1183 29.3608 -0.3301 16.0569 -19.1574 0.3976 4.0484 11.2128 0.0000 0.0000 0.0000 27.5530 3.7214 4.1207 -1.6640 -8.1280 23.1037 -0.6562 -23.0750 -36.3046 -0.0026 -0.3321 0.9126 2.1555 4.0797 7.6329 -3.2091 5.5348 1.9619 -5.0075 2.7774 -1.7073 -3.3774 10.3534 -7.2136 8.1340 13.6377 30.4415 4.7978 6.9632 9.9890 0.0000 -0.0000 0.0000 -82.5645 6.6409 -15.4908 7.9419 -13.4587 -0.9386 -0.0000 -0.0000 18.7428 29.6471 22.3745 12.2247 -7.1250 0.0000 -0.0000 0.7868 55.3229 0.1994 0.0000 -0.0000 0.0000 81.3652 -3.1277 31.0597 -20.3526 31.0648 -5.7122 0.0000 0.0000 8.3910 -37.7623 4.0577 -3.1374 7.1250 -0.0000 -0.0000 -8.3211 -24.8505 -4.0949
-9.0275 18.3762 0.4348 -3.6438 19.7934 -4.1461 0.0000 0.0000 0.0000 -4.8203 -0.9077 -18.6221 2.6608 10.1246 29.3813 -0.2948 15.8401 -19.2287 0.3887 4.0033 11.0859 0.0000 0.0000 0.0000 27.4326 3.6319 4.2401 -1.6694 -8.1406 23.1419 -0.6846 -23.3318 -36.7588 -0.0018 -0.2729 0.7498 2.0390 4.0533 7.5894 -3.2957 5.4898 1.9880 -5.0240 2.7572 -1.6630 -3.5711 10.3199 -7.3272 8.2562 13.6004 30.4517 4.8739 6.9410 9.9890 0.0000 -0.0000 0.0000 -82.5263 6.3638 -16.4514 7.7546 -13.1542 -0.8954 -0.0000 -0.0000 19.6086 29.2158 21.6024 11.6342 -7.1250 0.0000 -0.0000 0.4969 54.3825 0.1146 0.0000 -0.0000 0.0000 81.4000 -3.3211 30.9345 -20.4521 31.1832 -5.7636 0.0000 0.0000 8.0238 -37.7766 3.8640 -2.9897 7.1250 -0.0000 -0.0000 -8.3559 -25.0912 -4.0651
-8.9529 18.3634 0.4657 -3.6981 20.2457 -4.0980 0.0000 0.0000 0.0000 -5.0598 -0.8766 -18.7999 2.6753 10.1498 29.4632 -0.3715 16.1383 -18.7719 0.2361 3.1271 8.6329 0.0000 0.0000 0.0000 27.3701 3.5905 4.4359 -1.6587 -8.1157 23.0660 -0.7497 -23.4432 -37.2289 -0.0026 -0.3324 0.9133 1.9166 4.0854 7.4651 -3.3269 5.5240 2.0450 -4.9764 2.7785 -1.5405 -3.7418 10.2492 -7.4483 8.2189 13.5478 30.4146 4.8895 6.8954 9.9913 0.0000 -0.0000 0.0000 -82.5701 5.8751 -18.1316 7.5029 -12.7439 -0.8391 -0.0000 -0.0000 21.3465 29.1111 21.3237 11.4470 -7.1250 0.0000 -0.0000 0.4469 54.0543 0.0995 0.0000 -0.0000 0.0000 81.2689 -3.2521 30.8494 -20.4016 31.1231 -5.7375 0.0000 0.0000 7.8645 -37.5025 3.2937 -2.5246 7.1250 -0.0000 -0.0000 -8.2219 -25.8191 -3.8578
-8.8779 18.3598 0.4985 -3.8548 20.6614 -4.0811 0.0000 0.0000 0.0000 -5.1623 -0.8941 -18.9171 2.6926 10.1800 29.5617 -0.3896 16.1566 -18.5691 0.1611 2.5863 7.1290 0.0000 0.0000 0.0000 27.4341 3.5696 4.7124 -1.6308 -8.0506 22.8678 -0.7755 -23.7126 -37.6747 -0.0018 -0.2748 0.7550 1.9204 4.1313 7.3401 -3.3619 5.5859 2.0795 -5.0062 2.8131 -1.4254 -3.7739 10.1660 -7.4536 8.0975 13.4704 30.3222 4.8420 6.8443 9.9723 -0.0000 -0.0000 0.0000 -82.5259 5.5169 -19.3173 7.3134 -12.4338 -0.7977 -0.0000 -0.0000 22.7340 29.0190 21.4276 11.4565 -7.1250 0.0000 -0.0000 0.3257 54.1496 0.0733 -0.0000 -0.0000 0.0000 81.2550 -3.2799 30.5566 -20.3842 31.1025 -5.7285 0.0000 0.0000 8.2733 -37.2731 2.6288 -1.9991 7.1250 -0.0000 -0.0000 -8.1281 -26.6581 -3.6517
-8.8001 18.3620 0.5317 -3.9728 21.1183 -4.0557 0.0000 0.0000 0.0000 -5.2775 -1.1080 -18.9969 2.7124 10.2142 29.6733 -0.4021 16.0614 -18.2293 0.1441 2.4467 6.7420 0.0000 0.0000 0.0000 27.4439 3.5566 5.0354 -1.5907 -7.9557 22.5796 -0.7820 -24.0635 -38.1149 -0.0011 -0.2109 0.5796 1.9154 4.1438 7.2738 -3.4266 5.6017 2.0808 -5.0659 2.8228 -1.3797 -3.8146 10.1207 -7.5299 8.0618 13.4333 30.3535 4.8421 6.8188 10.0009 -0.0000 0.0000 0.0000 -82.4292 5.4179 -19.5488 7.2607 -12.3475 -0.7864 -0.0000 -0.0000 23.0674 28.3501 21.0938 10.9895 -7.1250 0.0000 -0.0000 -0.3079 53.6480 -0.0655 -0.0000 0.0000 0.0000 81.3314 -3.4576 30.2906 -20.3888 31.1079 -5.7309 0.0000 0.0000 8.5503 -37.3002 2.5137 -1.9136 7.1250 -0.0000 -0.0000 -8.1618 -26.7999 -3.6397
-8.7191 18.3643 0.5646 -3.9790 21.5996 -3.9502 0.0000 0.0000 0.0000 -5.4746 -1.5069 -19.1507 2.7447 10.2698 29.8551 -0.4229 15.9040 -17.6486 0.1549 2.5364 6.9905 0.0000 0.0000 0.0000 27.3176 3.5548 5.3102 -1.5486 -7.8546 22.2733 -0.7514 -24.4382 -38.3992 -0.0026 -0.3263 0.8966 1.7971 4.1712 7.2232 -3.5250 5.6275 2.0281 -5.1023 2.8348 -1.4050 -3.8394 10.0717 -7.5327 8.0225 13.3892 30.3973 4.8334 6.7918 10.0224 -0.0000 -0.0000 0.0000 -82.3236 5.3941 -19.4834 7.2707 -12.3640 -0.7886 -0.0000 -0.0000 23.0451 27.8322 20.8775 10.6556 -7.1250 0.0000 -0.0000 -0.8018 53.3089 -0.1639 -0.0000 -0.0000 0.0000 81.3952 -3.6628 30.0268 -20.3491 31.0606 -5.7103 0.0000 0.0000 8.7536 -37.1459 2.6089 -1.9749 7.1250 -0.0000 -0.0000 -8.0345 -26.6888 -3.6030
-8.6370 18.3687 0.5962 -3.9594 22.1633 -3.8215 0.0000 0.0000 0.0000 -5.6952 -2.0000 -19.3382 2.7786 10.3277 30.0447 -0.4497 15.7872 -17.0344 0.1503 2.4980 6.8841 0.0000 0.0000 0.0000 27.1771 3.4980 5.5091 -1.5185 -7.7815 22.0524 -0.7034 -24.8634 -38.6626 -0.0043 -0.4235 1.1638 1.6523 4.1712 7.2102 -3.6421 5.6132 1.9265 -5.1470 2.8245 -1.5064 -3.7502 10.0120 -7.3687 7.8976 13.3259 30.3821 4.7608 6.7599 10.0089 0.0000 -0.0000 0.0000 -82.1854 5.4776 -18.8582 7.3459 -12.4872 -0.8048 -0.0000 -0.0000 22.3308 27.9581 21.8379 11.1687 -7.1250 0.0000 -0.0000 -0.9007 54.3807 -0.2076 0.0000 -0.0000 0.0000 81.5041 -3.9613 29.7737 -20.2923 30.9929 -5.6811 0.0000 0.0000 8.9660 -36.9067 2.6201 -1.9663 7.1250 -0.0000 -0.0000 -7.8527 -26.6860 -3.5205
-8.5605 18.3718 0.6214 -3.9010 22.7823 -3.7067 0.0000 0.0000 0.0000 -5.9860 -2.3624 -19.4502 2.8140 10.3878 30.2418 -0.3911 15.3013 -16.9700 0.1938 2.8350 7.8198 0.0000 0.0000 0.0000 27.0571 3.5217 5.6897 -1.5096 -7.7597 21.9866 -0.7438 -25.1847 -39.2379 -0.0063 -0.5132 1.4102 1.4321 4.1464 7.2971 -3.7424 5.5610 1.8726 -5.1360 2.7956 -1.6266 -3.7567 9.9777 -7.3482 7.8389 13.3024 30.4004 4.7407 6.7425 10.0184 0.0000 0.0000 0.0000 -82.1254 5.3887 -18.6299 7.4146 -12.5995 -0.8197 -0.0000 -0.0000 22.0927 28.2442 23.1916 11.9448 -7.1250 0.0000 -0.0000 -0.9509 55.9124 -0.2546 0.0000 0.0000 0.0000 81.5712 -4.1764 29.6428 -20.1848 30.8643 -5.6258 0.0000 0.0000 8.9249 -36.9290 2.8560 -2.1447 7.1250 -0.0000 -0.0000 -7.8430 -26.3930 -3.5704
-8.4890 18.3733 0.6433 -3.8211 23.3780 -3.5985 0.0000 0.0000 0.0000 -6.2788 -2.6193 -19.6357 2.8499 10.4481 30.4403 -0.3420 14.8959 -16.9390 0.2177 3.0034 8.2883 0.0000 0.0000 0.0000 26.8924 3.4783 5.7749 -1.5202 -7.7857 22.0649 -0.8567 -25.2597 -39.8620 -0.0089 -0.6103 1.6770 1.1084 4.1530 7.3640 -3.7863 5.5459 1.9196 -5.0035 2.7890 -1.6431 -3.9718 9.9609 -7.4078 7.8635 13.3101 30.2528 4.7746 6.7302 9.9551 0.0000 -0.0000 0.0000 -82.1840 4.9680 -19.3206 7.4017 -12.5785 -0.8169 -0.0000 -0.0000 22.7399 28.4094 23.7714 12.3000 -7.1250 0.0000 -0.0000 -0.9348 56.5773 -0.2653 0.0000 -0.0000 0.0000 81.5100 -4.1667 29.6326 -19.9839 30.6230 -5.5232 0.0000 0.0000 8.7016 -36.9518 3.1701 -2.3821 7.1250 -0.0000 -0.0000 -7.8244 -26.0031 -3.6339
-8.4106 18.3725 0.6681 -3.6124 23.9673 -3.4337 0.0000 0.0000 0.0000 -6.7385 -2.8622 -19.7851 2.8865 10.5090 30.6413 -0.3038 14.5587 -16.8891 0.2062 2.9239 8.0669 0.0000 0.0000 0.0000 26.5284 3.3368 5.7359 -1.5496 -7.8570 22.2805 -0.9116 -25.3861 -40.2630 -0.0070 -0.5384 1.4794 0.6862 4.1870 7.3116 -3.8514 5.5624 1.9969 -4.8283 2.8003 -1.5665 -4.2171 9.9222 -7.3996 7.8883 13.2853 30.0165 4.7990 6.7022 9.8465 -0.0000 0.0000 0.0000 -82.2020 4.6037 -19.2944 7.4181 -12.6053 -0.8205 -0.0000 -0.0000 22.5067 27.5291 22.3089 11.1916 -7.1250 0.0000 -0.0000 -1.4805 54.8036 -0.3566 -0.0000 0.0000 0.0000 81.4606 -4.1803 29.5749 -19.7854 30.3829 -5.4224 0.0000 0.0000 8.6101 -36.8176 3.2256 -2.4119 7.1250 -0.0000 -0.0000 -7.7176 -25.9419 -3.5946
-8.3299 18.3744 0.6960 -3.3080 24.4889 -3.2610 0.0000 0.0000 0.0000 -7.3144 -3.0824 -19.8136 2.9147 10.5557 30.7956 -0.2867 14.3380 -16.7469 0.1758 2.7010 7.4473 0.0000 0.0000 0.0000 26.1336 3.4480 5.7639 -1.5942 -7.9641 22.6052 -0.8890 -25.8239 -40.6612 -0.0043 -0.4255 1.1691 0.2319 4.2744 7.2773 -3.9713 5.6470 2.0529 -4.7002 2.8451 -1.5140 -4.3902 9.8356 -7.4106 7.9080 13.1911 29.9367 4.8197 6.6465 9.8104 0.0000 -0.0000 0.0000 -82.1143 4.3333 -18.7055 7.4842 -12.7133 -0.8349 -0.0000 -0.0000 21.9898 28.0204 23.4021 11.9348 -7.1250 0.0000 -0.0000 -1.2550 56.0917 -0.3415 0.0000 -0.0000 0.0000 81.5101 -4.3278 29.3319 -19.6184 30.1799 -5.3382 0.0000 0.0000 8.7987 -36.5950 3.2382 -2.4018 7.1250 -0.0000 -0.0000 -7.5495 -25.9383 -3.5156
-8.2548 18.3773 0.7238 -3.1284 24.9382 -3.1640 0.0000 0.0000 0.0000 -7.7446 -3.1354 -19.8407 2.9343 10.5880 30.9027 -0.2727 14.0525 -16.4499 0.1408 2.4187 6.6643 0.0000 0.0000 0.0000 25.9139 3.7050 5.8140 -1.6536 -8.1037 23.0296 -0.8730 -26.2665 -41.0994 -0.0030 -0.3554 0.9764 -0.0953 4.3671 7.3677 -4.1052 5.7432 2.0506 -4.6734 2.8932 -1.5766 -4.4822 9.7657 -7.3899 7.9336 13.1078 29.9151 4.8333 6.6040 9.7949 -0.0000 0.0000 0.0000 -81.9433 4.2377 -17.5899 7.6642 -13.0070 -0.8750 -0.0000 -0.0000 21.0965 26.7680 22.8030 11.0619 -7.1250 0.0000 -0.0000 -2.4335 55.1783 -0.6084 -0.0000 0.0000 0.0000 81.6415 -4.5107 29.0946 -19.4249 29.9433 -5.2413 0.0000 0.0000 9.1610 -36.2790 3.4271 -2.5124 7.1250 -0.0000 -0.0000 -7.2921 -25.7233 -3.4308
-8.1795 18.3798 0.7488 -2.9298 25.3697 -2.9733 0.0000 0.0000 0.0000 -8.1893 -3.1496 -19.9747 2.9445 10.6046 30.9577 -0.2540 13.7583 -16.2151 0.1067 2.1060 5.7986 0.0000 0.0000 0.0000 25.6418 4.0016 5.7407 -1.7261 -8.2706 23.5391 -0.9131 -26.4610 -41.5021 -0.0014 -0.2424 0.6661 -0.4279 4.4315 7.4810 -4.2779 5.7951 1.9604 -4.6883 2.9171 -1.7433 -4.4550 9.7446 -7.2419 7.9154 13.0779 29.8409 4.8048 6.5949 9.7458 -0.0000 0.0000 0.0000 -81.7095 4.3267 -15.8882 7.9187 -13.4210 -0.9332 -0.0000 -0.0000 19.3965 27.1943 23.5806 11.6149 -7.1250 0.0000 -0.0000 -2.2084 56.1047 -0.6017 -0.0000 0.0000 0.0000 81.8073 -4.7322 29.0551 -19.2490 29.7269 -5.1538 0.0000 0.0000 9.4776 -36.0914 3.3506 -2.4396 7.1250 -0.0000 -0.0000 -7.1599 -25.8275 -3.3501
